<?xml version="1.0" encoding="UTF-8"?>
<svg version="1.1" xmlns="http://www.w3.org/2000/svg" width="256" height="256">
<path d="M0 0 C2.0752679 0.59992191 4.13467046 1.25716079 6.17553711 1.96533203 C7.35043198 2.36889923 8.52532684 2.77246643 9.73582458 3.18826294 C10.66222653 3.5109786 10.66222653 3.5109786 11.60734367 3.84021378 C13.56093723 4.51949321 15.51761649 5.1890583 17.47547913 5.85592651 C23.03738262 7.75139892 28.5954248 9.65773117 34.14624023 11.58544922 C37.55358912 12.76800929 40.96620748 13.93411023 44.3826313 15.09017563 C45.67600896 15.5313677 46.96732081 15.97866815 48.25636101 16.43237686 C58.88086221 20.16885722 64.7500312 20.06672733 75.5625 17 C94.78199834 11.56014199 115.85636038 12.52062158 134.55859375 19.546875 C142.71472759 21.06065344 150.96932409 17.17061932 158.51171875 14.52734375 C159.81079143 14.0794683 161.11018 13.63250819 162.40986633 13.18641663 C166.50542837 11.77876896 170.59672998 10.35900356 174.6875 8.9375 C179.44186043 7.28559423 184.19786714 5.63879113 188.95838356 4.00470161 C190.85550048 3.35060729 192.74940231 2.68721183 194.64323425 2.02366638 C196.37577202 1.42788536 196.37577202 1.42788536 198.14331055 0.82006836 C199.6626545 0.29164589 199.6626545 0.29164589 201.21269226 -0.24745178 C203.99606876 -0.9989386 206.13660056 -1.30004494 209 -1 C211.3125 1 211.3125 1 213 3 C210.91491502 10.96952596 208.52927299 18.80640468 205.9375 26.625 C205.58623047 27.71167969 205.23496094 28.79835938 204.87304688 29.91796875 C204.53208984 30.94792969 204.19113281 31.97789063 203.83984375 33.0390625 C203.53425537 33.96928223 203.22866699 34.89950195 202.91381836 35.85791016 C202 38 202 38 200 39 C199.01 38.67 198.02 38.34 197 38 C196.67 39.65 196.34 41.3 196 43 C196.99 43.66 197.98 44.32 199 45 C198.60879395 46.50121346 198.21153859 48.0008495 197.8125 49.5 C197.55082031 50.50417969 197.28914062 51.50835937 197.01953125 52.54296875 C196.27732949 55.0596299 195.4818749 57.37814178 194.51171875 59.80078125 C191.10503257 68.61630028 190.58955995 73.48152484 194.51171875 82.4609375 C202.66753398 101.85508081 200.73581145 127.1302836 193.38671875 146.4609375 C182.57762325 172.87166831 163.17792628 192.67981566 137 204 C128.18373821 207.35857592 119.35050434 208.93457522 110 210 C109.7525 210.86109375 109.505 211.7221875 109.25 212.609375 C103.0705803 229.37105095 87.34622901 242.29960147 71.53125 249.6015625 C53.42594155 256.83522546 31.32336809 258.44255798 13 251 C-7.50150718 242.02728988 -22.79566455 226.8688306 -31 206 C-35.62272088 192.20899815 -35.4889887 178.2526501 -35.25 163.875 C-35.22987619 161.74090244 -35.21163597 159.60678626 -35.1953125 157.47265625 C-35.15184787 152.31463237 -35.08315502 147.15753037 -35 142 C-33.68 142 -32.36 142 -31 142 C-31 139.69 -31 137.38 -31 135 C-32.32 135 -33.64 135 -35 135 C-35.09969463 130.87417603 -35.17185233 126.74882903 -35.21972656 122.62207031 C-35.2397063 121.22155527 -35.2669002 119.82112218 -35.30175781 118.42089844 C-35.65611344 103.80894008 -35.65611344 103.80894008 -31 97 C-26.58106331 93.11258796 -22.17591542 92.35257593 -16.36328125 92.6171875 C-11.48184327 93.40789977 -8.87696965 95.9116328 -5.86608887 99.64830017 C-3.683273 103.56887635 -3.44944916 106.63812289 -3.51757812 111.00219727 C-3.51366562 111.78198441 -3.50975311 112.56177155 -3.50572205 113.3651886 C-3.49976543 115.05115008 -3.50288383 116.73716321 -3.5141449 118.42309761 C-3.53148872 121.10329634 -3.52385242 123.78242384 -3.5098877 126.46263123 C-3.48031344 133.12348164 -3.49335962 139.78412508 -3.50506592 146.44500732 C-3.51332181 152.07061735 -3.50510547 157.69575832 -3.47593689 163.32130241 C-3.46891908 165.940794 -3.48542848 168.55942467 -3.50305176 171.17884827 C-3.50061857 185.623034 -1.08041412 199.19064257 9.03515625 210.21875 C19.19259116 219.82084014 30.43468453 223.47777841 44.28125 223.24609375 C55.12107375 222.52875247 65.07983755 217.40918422 73 210 C73.33 209.01 73.66 208.02 74 207 C73.00742188 206.6596875 72.01484375 206.319375 70.9921875 205.96875 C44.78415347 196.73452824 24.35900639 180.26415546 12 155 C1.06032199 131.79665617 -0.61304281 105.57052277 7 81 C7.81807563 79.04146142 8.63520945 77.08912343 9.51831055 75.15893555 C10.66473788 70.02064012 8.72833157 64.70813598 7.03466797 59.86865234 C6.63110077 58.70409515 6.22753357 57.53953796 5.81173706 56.33969116 C5.37628571 55.10095245 4.94083435 53.86221375 4.4921875 52.5859375 C4.04192032 51.28543555 3.59256392 49.98461794 3.14407349 48.6835022 C1.24709334 43.1845738 -0.66407301 37.69064515 -2.58544922 32.20019531 C-3.76397899 28.83048193 -4.9306476 25.45685107 -6.09017563 22.08055496 C-6.74759134 20.17801719 -7.41851006 18.28016266 -8.08963013 16.38241577 C-8.48689301 15.2241629 -8.88415588 14.06591003 -9.29345703 12.87255859 C-9.64795929 11.85664642 -10.00246155 10.84073425 -10.3677063 9.79403687 C-11.21308011 6.05842224 -10.84409145 3.40681909 -8.875 0.125 C-5.87631244 -1.67421254 -3.355066 -0.6170558 0 0 Z " fill="#E0EAF3" transform="translate(39,1)"/>
<path d="M0 0 C2.0752679 0.59992191 4.13467046 1.25716079 6.17553711 1.96533203 C7.35043198 2.36889923 8.52532684 2.77246643 9.73582458 3.18826294 C10.66222653 3.5109786 10.66222653 3.5109786 11.60734367 3.84021378 C13.56093723 4.51949321 15.51761649 5.1890583 17.47547913 5.85592651 C23.03738262 7.75139892 28.5954248 9.65773117 34.14624023 11.58544922 C37.55358912 12.76800929 40.96620748 13.93411023 44.3826313 15.09017563 C45.67600896 15.5313677 46.96732081 15.97866815 48.25636101 16.43237686 C58.88086221 20.16885722 64.7500312 20.06672733 75.5625 17 C94.78199834 11.56014199 115.85636038 12.52062158 134.55859375 19.546875 C142.71472759 21.06065344 150.96932409 17.17061932 158.51171875 14.52734375 C159.81079143 14.0794683 161.11018 13.63250819 162.40986633 13.18641663 C166.50542837 11.77876896 170.59672998 10.35900356 174.6875 8.9375 C179.44186043 7.28559423 184.19786714 5.63879113 188.95838356 4.00470161 C190.85550048 3.35060729 192.74940231 2.68721183 194.64323425 2.02366638 C196.37577202 1.42788536 196.37577202 1.42788536 198.14331055 0.82006836 C199.6626545 0.29164589 199.6626545 0.29164589 201.21269226 -0.24745178 C203.99606876 -0.9989386 206.13660056 -1.30004494 209 -1 C211.3125 1 211.3125 1 213 3 C210.91491502 10.96952596 208.52927299 18.80640468 205.9375 26.625 C205.58623047 27.71167969 205.23496094 28.79835938 204.87304688 29.91796875 C204.53208984 30.94792969 204.19113281 31.97789063 203.83984375 33.0390625 C203.53425537 33.96928223 203.22866699 34.89950195 202.91381836 35.85791016 C202 38 202 38 200 39 C199.01 38.67 198.02 38.34 197 38 C196.67 39.65 196.34 41.3 196 43 C196.99 43.66 197.98 44.32 199 45 C198.60879395 46.50121346 198.21153859 48.0008495 197.8125 49.5 C197.55082031 50.50417969 197.28914062 51.50835937 197.01953125 52.54296875 C196.27732949 55.0596299 195.4818749 57.37814178 194.51171875 59.80078125 C191.10503257 68.61630028 190.58955995 73.48152484 194.51171875 82.4609375 C202.66753398 101.85508081 200.73581145 127.1302836 193.38671875 146.4609375 C182.57762325 172.87166831 163.17792628 192.67981566 137 204 C128.18373821 207.35857592 119.35050434 208.93457522 110 210 C109.7525 210.86109375 109.505 211.7221875 109.25 212.609375 C103.0705803 229.37105095 87.34622901 242.29960147 71.53125 249.6015625 C53.42594155 256.83522546 31.32336809 258.44255798 13 251 C-7.50150718 242.02728988 -22.79566455 226.8688306 -31 206 C-35.62272088 192.20899815 -35.4889887 178.2526501 -35.25 163.875 C-35.22987619 161.74090244 -35.21163597 159.60678626 -35.1953125 157.47265625 C-35.15184787 152.31463237 -35.08315502 147.15753037 -35 142 C-33.68 142 -32.36 142 -31 142 C-31 139.69 -31 137.38 -31 135 C-32.32 135 -33.64 135 -35 135 C-35.09969463 130.87417603 -35.17185233 126.74882903 -35.21972656 122.62207031 C-35.2397063 121.22155527 -35.2669002 119.82112218 -35.30175781 118.42089844 C-35.65611344 103.80894008 -35.65611344 103.80894008 -31 97 C-26.58106331 93.11258796 -22.17591542 92.35257593 -16.36328125 92.6171875 C-11.48184327 93.40789977 -8.87696965 95.9116328 -5.86608887 99.64830017 C-3.683273 103.56887635 -3.44944916 106.63812289 -3.51757812 111.00219727 C-3.51366562 111.78198441 -3.50975311 112.56177155 -3.50572205 113.3651886 C-3.49976543 115.05115008 -3.50288383 116.73716321 -3.5141449 118.42309761 C-3.53148872 121.10329634 -3.52385242 123.78242384 -3.5098877 126.46263123 C-3.48031344 133.12348164 -3.49335962 139.78412508 -3.50506592 146.44500732 C-3.51332181 152.07061735 -3.50510547 157.69575832 -3.47593689 163.32130241 C-3.46891908 165.940794 -3.48542848 168.55942467 -3.50305176 171.17884827 C-3.50061857 185.623034 -1.08041412 199.19064257 9.03515625 210.21875 C19.19259116 219.82084014 30.43468453 223.47777841 44.28125 223.24609375 C55.12107375 222.52875247 65.07983755 217.40918422 73 210 C73.33 209.01 73.66 208.02 74 207 C73.00742188 206.6596875 72.01484375 206.319375 70.9921875 205.96875 C44.78415347 196.73452824 24.35900639 180.26415546 12 155 C1.06032199 131.79665617 -0.61304281 105.57052277 7 81 C7.81807563 79.04146142 8.63520945 77.08912343 9.51831055 75.15893555 C10.66473788 70.02064012 8.72833157 64.70813598 7.03466797 59.86865234 C6.63110077 58.70409515 6.22753357 57.53953796 5.81173706 56.33969116 C5.37628571 55.10095245 4.94083435 53.86221375 4.4921875 52.5859375 C4.04192032 51.28543555 3.59256392 49.98461794 3.14407349 48.6835022 C1.24709334 43.1845738 -0.66407301 37.69064515 -2.58544922 32.20019531 C-3.76397899 28.83048193 -4.9306476 25.45685107 -6.09017563 22.08055496 C-6.74759134 20.17801719 -7.41851006 18.28016266 -8.08963013 16.38241577 C-8.48689301 15.2241629 -8.88415588 14.06591003 -9.29345703 12.87255859 C-9.64795929 11.85664642 -10.00246155 10.84073425 -10.3677063 9.79403687 C-11.21308011 6.05842224 -10.84409145 3.40681909 -8.875 0.125 C-5.87631244 -1.67421254 -3.355066 -0.6170558 0 0 Z M36 49 C35.30390625 49.69609375 34.6078125 50.3921875 33.890625 51.109375 C16.37510991 69.71112358 10.15622113 92.34442702 10.71875 117.2109375 C11.66673901 141.59795488 23.02586086 162.77881483 40.296875 179.6875 C46.37733338 184.88927942 54.07597937 191.33155764 62 193 C62.94621207 191.71470169 63.88090995 190.42093557 64.8125 189.125 C65.493125 188.23167969 66.17375 187.33835938 66.875 186.41796875 C68.67588065 183.82122019 69.55541147 181.38994753 70.4375 178.36328125 C72.47148544 172.54231327 74.44483295 168.10608531 80 165 C93.35497643 161.72663229 108.39347493 163.28343962 122 164 C122.2582959 164.70664795 122.5165918 165.4132959 122.78271484 166.14135742 C124.09672458 169.22714564 125.68702098 171.90231291 127.4765625 174.73828125 C128.146875 175.80498047 128.8171875 176.87167969 129.5078125 177.97070312 C130.20648438 179.07349609 130.90515625 180.17628906 131.625 181.3125 C132.33891579 182.44572794 133.05246125 183.57918926 133.765625 184.71289062 C135.50678917 187.47757698 137.25169055 190.23982869 139 193 C157.93864087 186.88850222 172.35145481 170.57193931 181.25 153.3125 C191.64984503 132.26840721 194.61622963 108.07257861 187.6171875 85.515625 C179.86705456 62.85839821 164.56045201 42.95078634 143.0859375 31.92578125 C106.49679227 14.02832137 64.94840113 20.05159887 36 49 Z " fill="#030404" transform="translate(39,1)"/>
<path d="M0 0 C8.38817816 7.84700537 14.1738928 15.91297126 14.59375 27.65625 C13.9865876 39.41194759 9.36129494 46.48781259 0.96875 54.53125 C-19.22260836 72.73191105 -47.38482974 73.74209966 -73.03125 72.53125 C-89.80567957 70.97143262 -107.20564812 63.65699406 -119.03125 51.53125 C-126.87032029 41.99916816 -129.15993125 33.85302184 -128.31689453 21.65673828 C-127.17277957 13.14334953 -121.6896999 5.67481447 -115.03125 0.53125 C-103.45910776 -8.00829695 -90.39443389 -14.34597618 -76.03125 -16.46875 C-75.32871094 -16.57832031 -74.62617187 -16.68789063 -73.90234375 -16.80078125 C-48.9245525 -19.97055171 -20.06851224 -16.34445842 0 0 Z " fill="#6CFBE8" transform="translate(197.03125,70.46875)"/>
<path d="M0 0 C4.11509965 0.6613553 5.05117834 1.25751749 7.5 4.5625 C7.88790503 7.26522108 8.03461585 9.56191077 7.99829102 12.26171875 C8.00380981 13.03306656 8.00932861 13.80441437 8.01501465 14.59913635 C8.02433116 16.27256731 8.02444264 17.94606917 8.01642036 19.61950684 C8.00377176 22.27827109 8.01510068 24.93599965 8.03245544 27.59472656 C8.05918567 32.29195234 8.06475098 36.98892467 8.06335449 41.68621826 C8.06112962 49.17528681 8.07557253 56.66403795 8.11894035 64.15298462 C8.12868741 66.7541 8.12010399 69.3547065 8.11024475 71.95581055 C8.13273044 89.64682494 11.93607847 104.44656083 24.5 117.5625 C34.66256474 126.37119861 46.48104117 130.73827488 59.8125 130.75 C60.53373047 130.76224609 61.25496094 130.77449219 61.99804688 130.78710938 C70.25144494 130.80931583 77.09564797 128.66555 84.4375 125 C85.13117676 124.65428955 85.82485352 124.3085791 86.53955078 123.95239258 C93.67654312 120.21877319 99.02836145 115.26995782 103.5 108.5625 C106.46528179 108.5062721 109.18850026 108.60566196 112.125 108.875 C113.32769531 108.9668457 113.32769531 108.9668457 114.5546875 109.06054688 C116.53758124 109.21398508 118.51898519 109.38645693 120.5 109.5625 C114.9115595 123.51816358 103.89216201 134.02560231 90.5 140.5625 C85.61638182 142.61050695 80.60435814 144.1578609 75.5 145.5625 C74.88133057 145.74063232 74.26266113 145.91876465 73.62524414 146.10229492 C61.3361471 148.76340324 45.92967439 147.79461253 34.5 142.5625 C33.43007813 142.088125 32.36015625 141.61375 31.2578125 141.125 C15.06140498 133.19828762 2.77863627 119.48855746 -3.5 102.5625 C-6.41962712 93.41270623 -7.65072205 84.92856785 -7.59765625 75.3515625 C-7.5962413 74.38342621 -7.59482635 73.41528992 -7.59336853 72.41781616 C-7.58779365 69.34101201 -7.57524577 66.26428197 -7.5625 63.1875 C-7.55748175 61.09505314 -7.55291941 59.00260513 -7.54882812 56.91015625 C-7.53783245 51.7942425 -7.52058515 46.67838379 -7.5 41.5625 C-8.82 41.5625 -10.14 41.5625 -11.5 41.5625 C-11.5 39.2525 -11.5 36.9425 -11.5 34.5625 C-10.18 34.5625 -8.86 34.5625 -7.5 34.5625 C-7.5314209 33.28403198 -7.5314209 33.28403198 -7.56347656 31.97973633 C-7.63185244 28.80220567 -7.68189738 25.62505129 -7.71972656 22.44702148 C-7.7397799 21.07449977 -7.76703028 19.70206283 -7.80175781 18.32983398 C-7.85054552 16.35177956 -7.87088876 14.37308881 -7.890625 12.39453125 C-7.9220459 10.61139526 -7.9220459 10.61139526 -7.95410156 8.79223633 C-7.21600484 3.5426226 -5.28006208 0.84858141 0 0 Z " fill="#DFEAF3" transform="translate(19.5,101.4375)"/>
<path d="M0 0 C8.38817816 7.84700537 14.1738928 15.91297126 14.59375 27.65625 C13.9865876 39.41194759 9.36129494 46.48781259 0.96875 54.53125 C-19.22260836 72.73191105 -47.38482974 73.74209966 -73.03125 72.53125 C-89.80567957 70.97143262 -107.20564812 63.65699406 -119.03125 51.53125 C-126.87032029 41.99916816 -129.15993125 33.85302184 -128.31689453 21.65673828 C-127.17277957 13.14334953 -121.6896999 5.67481447 -115.03125 0.53125 C-103.45910776 -8.00829695 -90.39443389 -14.34597618 -76.03125 -16.46875 C-75.32871094 -16.57832031 -74.62617187 -16.68789063 -73.90234375 -16.80078125 C-48.9245525 -19.97055171 -20.06851224 -16.34445842 0 0 Z M-115.18359375 11.21484375 C-119.78471057 16.98326293 -121.76507559 22.65862634 -121.41015625 30.0546875 C-120.00962375 39.2086834 -114.46296081 45.98851536 -107.40234375 51.6328125 C-88.02010879 65.41458809 -62.39854609 68.22304055 -39.34375 64.40625 C-27.36621455 62.16255901 -15.70572274 58.08358033 -6.03125 50.53125 C-4.979375 49.78875 -3.9275 49.04625 -2.84375 48.28125 C3.34766728 42.22741977 6.34628117 36.8108724 6.71875 28.03125 C6.28529582 18.46636105 2.5880295 12.80440559 -4.15625 6.28125 C-18.96164791 -5.94181107 -38.56236603 -9.64612717 -57.21875 -9.65625 C-58.38728516 -9.66849609 -59.55582031 -9.68074219 -60.75976562 -9.69335938 C-80.76936156 -9.7268389 -101.18990985 -3.79471557 -115.18359375 11.21484375 Z " fill="#050808" transform="translate(197.03125,70.46875)"/>
<path d="M0 0 C6.21107458 1.36963276 9.56429307 4.36686135 13.24493408 9.57696533 C19.87554932 21.08257191 19.87554932 21.08257191 19.87554932 26.81085205 C17.71120089 27.46441232 15.54393495 28.10831385 13.37554932 28.74835205 C12.16898682 29.10800049 10.96242432 29.46764893 9.71929932 29.8381958 C-7.26073942 34.1349739 -26.80597819 32.8957062 -43.12445068 26.81085205 C-42.83247803 26.08615723 -42.54050537 25.3614624 -42.23968506 24.61480713 C-41.5526453 22.88743156 -40.8832713 21.15275587 -40.24359131 19.4072876 C-32.84388272 0.50463444 -18.82867866 -2.96658661 0 0 Z " fill="#5A91F0" transform="translate(151.12445068359375,171.18914794921875)"/>
<path d="M0 0 C1.0725 0.103125 2.145 0.20625 3.25 0.3125 C2.76333359 0.97577805 2.27666718 1.63905609 1.7752533 2.32243347 C-0.10085636 6.0003096 -0.17912799 9.12267509 -0.15405273 13.15356445 C-0.16091599 13.92838669 -0.16777924 14.70320892 -0.17485046 15.50151062 C-0.19312546 18.05978838 -0.18927516 20.61745224 -0.18359375 23.17578125 C-0.18815994 24.96876726 -0.19346681 26.76175153 -0.19947815 28.55473328 C-0.20841419 32.31821785 -0.20598607 36.08149039 -0.19604492 39.8449707 C-0.1846396 44.62460979 -0.20463326 49.40350074 -0.23396206 54.18304157 C-0.25249479 57.89215114 -0.25199658 61.6010878 -0.24632454 65.31023216 C-0.24617294 67.06935858 -0.25208102 68.82849797 -0.26461601 70.58757973 C-0.35240179 84.94447515 1.06465639 98.79121446 8 111.6875 C8.34289062 112.34613037 8.68578125 113.00476074 9.0390625 113.68334961 C13.52628872 122.03650954 19.2061977 128.77947171 26.484375 134.83984375 C28.5319282 136.54764808 30.40421492 138.38980721 32.25 140.3125 C19.17547174 136.51666921 8.72622566 125.6138179 1.84765625 114.22265625 C-7.40540492 97.36805828 -8.17849366 81.18650344 -7.9375 62.4375 C-7.92241827 60.38152028 -7.90873607 58.32552979 -7.89648438 56.26953125 C-7.8637729 51.28358343 -7.81218526 46.29816375 -7.75 41.3125 C-9.07 41.3125 -10.39 41.3125 -11.75 41.3125 C-11.75 39.0025 -11.75 36.6925 -11.75 34.3125 C-10.43 34.3125 -9.11 34.3125 -7.75 34.3125 C-7.7814209 33.03403198 -7.7814209 33.03403198 -7.81347656 31.72973633 C-7.88185244 28.55220567 -7.93189738 25.37505129 -7.96972656 22.19702148 C-7.9897799 20.82449977 -8.01703028 19.45206283 -8.05175781 18.07983398 C-8.10054552 16.10177956 -8.12088876 14.12308881 -8.140625 12.14453125 C-8.1720459 10.36139526 -8.1720459 10.36139526 -8.20410156 8.54223633 C-7.44024132 3.10938301 -5.52607276 0.46050606 0 0 Z " fill="#C1D5E7" transform="translate(19.75,101.6875)"/>
<path d="M0 0 C0.33 0 0.66 0 1 0 C0.9278125 0.82757813 0.855625 1.65515625 0.78125 2.5078125 C-0.55919989 19.74748748 -1.47867367 36.40178142 4 53 C4.350625 54.11503906 4.70125 55.23007813 5.0625 56.37890625 C9.14533163 68.15957667 15.93850628 78.38067318 24.56640625 87.328125 C26 89 26 89 26 91 C26.5878125 91.26425781 27.175625 91.52851563 27.78125 91.80078125 C30.07774212 93.04201907 31.62068353 94.38648838 33.5 96.1875 C38.47519652 100.67271505 44.15057495 103.79256526 50 107 C48.68 108.98 47.36 110.96 46 113 C41.14951325 111.64245076 37.35115589 109.49929228 33.3125 106.5625 C32.705271 106.12292969 32.09804199 105.68335938 31.47241211 105.23046875 C12.21457548 90.93661648 -0.31161833 70.36086367 -4.578125 46.80859375 C-6.232604 31.87232503 -6.91823916 13.83647833 0 0 Z " fill="#C1D4E6" transform="translate(55,81)"/>
<path d="M0 0 C-1.31235852 6.36430174 -3.01219415 12.42121028 -5.125 18.5625 C-5.40214844 19.38041016 -5.67929688 20.19832031 -5.96484375 21.04101562 C-6.63905137 23.02876568 -7.31892204 25.01459349 -8 27 C-7.01 27.33 -6.02 27.66 -5 28 C-5.1875 30.875 -5.1875 30.875 -6 34 C-6.7734375 34.2165625 -7.546875 34.433125 -8.34375 34.65625 C-11.96352327 36.48742942 -12.32405971 38.48993232 -13.57226562 42.21875 C-13.81654297 43.0128125 -14.06082031 43.806875 -14.3125 44.625 C-14.57611328 45.42679688 -14.83972656 46.22859375 -15.11132812 47.0546875 C-15.75828498 49.03084662 -16.38147207 51.01475915 -17 53 C-17.639375 52.195625 -18.27875 51.39125 -18.9375 50.5625 C-20.40603502 48.7249496 -20.40603502 48.7249496 -22 47 C-21.67858477 41.21452594 -20.18923381 36.48391114 -18.12109375 31.09765625 C-16.09427074 25.4974101 -14.57549184 19.74048887 -13 14 C-17.89374229 14.55822155 -22.09386441 15.61437312 -26.6875 17.375 C-43.94434203 23.63519482 -43.94434203 23.63519482 -48.30078125 22.2890625 C-50.25 21.1875 -50.25 21.1875 -53 19 C-53 18.34 -53 17.68 -53 17 C-45.77483549 14.57475392 -38.54812834 12.15414935 -31.3203125 9.73681641 C-28.85999061 8.91334979 -26.40002825 8.08880819 -23.94042969 7.26318359 C-20.41174037 6.07889745 -16.88179006 4.89844164 -13.3515625 3.71875 C-12.24632233 3.34689575 -11.14108215 2.9750415 -10.00234985 2.59191895 C-8.98144257 2.25156616 -7.96053528 1.91121338 -6.90869141 1.56054688 C-6.00712311 1.2585437 -5.10555481 0.95654053 -4.17666626 0.64538574 C-2 0 -2 0 0 0 Z " fill="#BDD0E3" transform="translate(241,10)"/>
<path d="M0 0 C7.1739219 1.88786855 14.23336727 3.98462731 21.26171875 6.35546875 C22.17838821 6.66196854 23.09505768 6.96846832 24.039505 7.28425598 C26.92313484 8.24915193 29.80533324 9.21824372 32.6875 10.1875 C34.6607135 10.8485873 36.63402003 11.509397 38.60742188 12.16992188 C43.40602732 13.77674678 48.20335519 15.38733219 53 17 C53 17.66 53 18.32 53 19 C50.5025601 21.30532914 48.5233723 23.03542726 44.984375 22.953125 C39.84296147 21.88045599 34.96453586 19.93812719 30.0625 18.0859375 C24.46380582 16.10068625 18.72601919 14.5715206 13 13 C13.19634033 13.57331055 13.39268066 14.14662109 13.5949707 14.73730469 C15.78060945 21.14200337 17.90676043 27.56455586 20 34 C20.2278418 34.68497559 20.45568359 35.36995117 20.69042969 36.07568359 C23.46235754 44.53772465 23.46235754 44.53772465 22.3515625 48.05078125 C21.3125 49.75 21.3125 49.75 19 52 C18.34 52 17.68 52 17 52 C14.57468702 44.91730167 12.15409009 37.83300468 9.73681641 30.74755859 C8.91336695 28.33572619 8.08882543 25.92426636 7.26318359 23.51318359 C6.07885248 20.05402681 4.89841336 16.59356344 3.71875 13.1328125 C3.34689575 12.04944611 2.9750415 10.96607971 2.59191895 9.84988403 C2.25156616 8.8489975 1.91121338 7.84811096 1.56054688 6.81689453 C1.2585437 5.93309113 0.95654053 5.04928772 0.64538574 4.13870239 C0 2 0 2 0 0 Z " fill="#BED1E4" transform="translate(38,10)"/>
<path d="M0 0 C0.7550918 2.65723143 0.97868854 4.36229486 0.8125 7.1875 C1.20360741 15.14001742 5.58513564 22.30311145 11 28 C27.66709933 42.50147294 46.9567354 46.34531904 68.3125 46.4375 C69.34028061 46.44689606 69.34028061 46.44689606 70.38882446 46.45648193 C78.49551774 46.50329026 85.76913002 45.94333124 93.53588867 43.54321289 C96.12694527 42.97201494 97.52602965 43.12906699 100 44 C74.58950649 53.78273237 48.02949559 55.40557523 22.28515625 45.50390625 C12.04328561 40.81529722 1.65456512 33.72295559 -3 23.0625 C-5.35141015 15.31667832 -4.44387393 8.77971921 -0.875 1.6171875 C-0.58625 1.08351563 -0.2975 0.54984375 0 0 Z " fill="#25E8D1" transform="translate(80,84)"/>
<path d="M0 0 C3.375 -0.125 3.375 -0.125 7 0 C7.66 0.66 8.32 1.32 9 2 C12.30683466 1.71016731 12.30683466 1.71016731 15 0 C18.4375 -0.1875 18.4375 -0.1875 22 0 C22.66 0.66 23.32 1.32 24 2 C27.30683466 1.71016731 27.30683466 1.71016731 30 0 C32.33297433 -0.04092937 34.66705225 -0.04241723 37 0 C36.73212125 3.92888829 36.47562903 5.54876221 33.5625 8.3125 C29.69261068 10.8609637 27.65930613 11.27407683 23 11 C22.13375 10.62875 21.2675 10.2575 20.375 9.875 C18.05198161 8.70388482 18.05198161 8.70388482 16.0625 9.875 C15.381875 10.24625 14.70125 10.6175 14 11 C10.16124385 11.50070732 8.26439745 11.12711416 4.75 9.4375 C1.42728928 6.49237005 0.82642792 4.29742516 0 0 Z " fill="#030808" transform="translate(121,106)"/>
<path d="M0 0 C4.1721124 0.61809073 8.1943773 1.86509324 12.25 3 C26.05477025 6.72688937 46.69713231 9.65143385 60 3 C60 3.99 60 4.98 60 6 C57.83565157 6.65356027 55.66838563 7.2974618 53.5 7.9375 C52.2934375 8.29714844 51.086875 8.65679687 49.84375 9.02734375 C32.86371126 13.32412184 13.31847249 12.08485415 -3 6 C-1.125 1.125 -1.125 1.125 0 0 Z " fill="#026AE7" transform="translate(111,192)"/>
<path d="M0 0 C4.16699407 1.76518499 7.17549188 3.96936485 10 7.5 C11.07952225 10.19880564 11.24683382 12.12027211 11 15 C8.36 15 5.72 15 3 15 C2.5359375 13.7934375 2.5359375 13.7934375 2.0625 12.5625 C1.23664655 10.10919595 1.23664655 10.10919595 0 9 C-4.01657143 8.77081758 -4.01657143 8.77081758 -8 9 C-10.1385485 11.1385485 -10.42655063 12.13275314 -11 15 C-13.64 15 -16.28 15 -19 15 C-19.40202411 11.58279506 -19.01222273 10.02303514 -17.375 6.9375 C-12.48701016 0.89182836 -7.65699722 -1.50035756 0 0 Z " fill="#050B0A" transform="translate(170,83)"/>
<path d="M0 0 C4.33950393 2.21069068 7.42973362 4.84803123 10 9 C10.25 12.3125 10.25 12.3125 10 15 C7.69 15 5.38 15 3 15 C2.34 13.02 1.68 11.04 1 9 C-0.43655854 8.91868537 -1.8744483 8.86066441 -3.3125 8.8125 C-4.11300781 8.77769531 -4.91351563 8.74289063 -5.73828125 8.70703125 C-8.05829913 8.81565832 -8.05829913 8.81565832 -9.73046875 10.32421875 C-11.20745641 12.08769084 -11.20745641 12.08769084 -12 15 C-14.31 15 -16.62 15 -19 15 C-19.4505519 11.92122867 -19.50042912 9.78989302 -17.8046875 7.11328125 C-12.63727235 0.92017315 -8.10139304 -1.14123971 0 0 Z " fill="#030808" transform="translate(118,83)"/>
<path d="M0 0 C-0.99043705 4.83628305 -1.95698846 9.47618873 -4 14 C-5.10865985 13.08877273 -6.21172219 12.17073341 -7.3125 11.25 C-7.92738281 10.73953125 -8.54226562 10.2290625 -9.17578125 9.703125 C-11.05932329 7.94461466 -12.51573656 6.10080364 -14 4 C-12.0429132 3.32968281 -10.08428887 2.66385317 -8.125 2 C-7.03445312 1.62875 -5.94390625 1.2575 -4.8203125 0.875 C-2 0 -2 0 0 0 Z " fill="#67EEDC" transform="translate(217,34)"/>
<path d="M0 0 C1.77111844 0.47811177 3.54188483 0.9575278 5.3125 1.4375 C6.29863281 1.70433594 7.28476563 1.97117188 8.30078125 2.24609375 C10.21517526 2.78079425 12.11433615 3.37144538 14 4 C12.84906278 7.45281166 11.6794007 8.38082163 8.9375 10.6875 C8.20402344 11.31011719 7.47054687 11.93273438 6.71484375 12.57421875 C6.14894531 13.04472656 5.58304687 13.51523437 5 14 C3.23662322 11.35493484 2.3439149 9.40786033 1.375 6.4375 C0.98441406 5.25994141 0.98441406 5.25994141 0.5859375 4.05859375 C0 2 0 2 0 0 Z " fill="#69F3E1" transform="translate(62,34)"/>
<path d="M0 0 C2.31 0 4.62 0 7 0 C7 2.31 7 4.62 7 7 C4.69 7 2.38 7 0 7 C0 4.69 0 2.38 0 0 Z " fill="#FFFFFF" transform="translate(125,181)"/>
<path d="M0 0 C2.31 0 4.62 0 7 0 C7 2.31 7 4.62 7 7 C4.69 7 2.38 7 0 7 C0 4.69 0 2.38 0 0 Z " fill="#000000" transform="translate(110,42)"/>
<path d="M0 0 C2.31 0 4.62 0 7 0 C7 2.31 7 4.62 7 7 C4.69 7 2.38 7 0 7 C0 4.69 0 2.38 0 0 Z " fill="#000000" transform="translate(95,42)"/>
<path d="M0 0 C2.97 1.98 2.97 1.98 6 4 C5.01 4.495 5.01 4.495 4 5 C1.96855359 4.06553465 -0.03533587 3.06775224 -2 2 C-1.34 1.34 -0.68 0.68 0 0 Z " fill="#B6C7D8" transform="translate(46,237)"/>
</svg>
